<svg xmlns="http://www.w3.org/2000/svg" viewBox="0 0 561.92 159.95"><defs><style>.cls-1{fill:#007372;}.cls-2{fill:#fc6600;}</style></defs><g id="Calque_2" data-name="Calque 2"><g id="Calque_1-2" data-name="Calque 1"><rect class="cls-1" x="103.39" y="0.75" width="6.32" height="6.32"/><polygon class="cls-1" points="90.74 7.08 90.74 13.4 97.06 13.4 103.39 13.4 103.39 7.08 97.06 7.08 90.74 7.08"/><polygon class="cls-1" points="116.04 7.08 109.71 7.08 109.71 13.4 109.71 19.73 116.04 19.73 116.04 26.05 122.36 26.05 128.69 26.05 128.69 19.73 122.36 19.73 122.36 13.4 128.69 13.4 128.69 7.08 122.36 7.08 116.04 7.08"/><polygon class="cls-1" points="147.66 7.08 141.34 7.08 141.34 13.4 141.34 19.73 147.66 19.73 153.99 19.73 153.99 13.4 147.66 13.4 147.66 7.08"/><rect class="cls-1" x="153.99" y="7.08" width="6.32" height="6.32"/><polygon class="cls-1" points="97.06 26.05 97.06 19.73 90.74 19.73 84.41 19.73 84.41 26.05 90.74 26.05 97.06 26.05"/><rect class="cls-1" x="103.39" y="19.73" width="6.32" height="6.32"/><rect class="cls-1" x="109.71" y="26.05" width="6.32" height="6.32"/><path class="cls-1" d="M147.66,26.05H135v6.33h6.33V38.7H135V45h6.33v6.32h6.32V45H154v6.32h6.32V26.05H147.66ZM154,38.7h-6.33V32.38H154Z"/><polygon class="cls-1" points="90.74 32.38 90.74 38.7 84.41 38.7 84.41 45.03 90.74 45.03 90.74 51.35 97.06 51.35 103.39 51.35 103.39 45.03 97.06 45.03 97.06 38.7 103.39 38.7 103.39 32.38 97.06 32.38 90.74 32.38"/><polygon class="cls-1" points="109.71 38.7 109.71 45.03 109.71 51.35 116.04 51.35 116.04 45.03 122.36 45.03 128.69 45.03 128.69 38.7 122.36 38.7 122.36 32.38 116.04 32.38 116.04 38.7 109.71 38.7"/><rect class="cls-2" x="7.87" y="136.19" width="15.88" height="15.88"/><rect class="cls-2" x="37.95" y="128.32" width="6.32" height="6.32"/><polygon class="cls-2" points="69.57 128.32 63.25 128.32 56.92 128.32 50.6 128.32 50.6 134.65 50.6 140.97 44.27 140.97 44.27 147.3 37.95 147.3 37.95 153.62 44.27 153.62 44.27 159.94 50.6 159.94 50.6 153.62 50.6 147.3 56.92 147.3 56.92 140.97 63.25 140.97 63.25 147.3 63.25 153.62 69.57 153.62 69.57 147.3 69.57 140.97 69.57 134.65 75.9 134.65 75.9 128.32 69.57 128.32"/><rect class="cls-2" x="56.92" y="153.62" width="6.32" height="6.32"/><path class="cls-2" d="M25.3,128.32H0V160H31.62V128.32Zm2.12,27.42H4.21V132.53H27.42Z"/><path class="cls-2" d="M84.54,59V159h35.28c.2-5.55.3-9.58.25-11-.2-6.8-3.37-11.34-6.13-16.22s-5.1-8.92-4.67-21.24,2.28-36.81,2.28-36.81h1.51l1.59,36s.25,2.23,1.28,2.23,1.2-.88,1.19-2.63.4-35.61.4-35.61h1.87L121,108.56s.16,3,1.27,3,1.36-2.06,1.36-2.93V73.75h1.9l1.36,35.69s.24,2.15,1.68,2.15S130,110.07,130,109s-.32-35.29-.32-35.29h1.43s4.23,26.19,4.55,38.93-1.92,16.15-4.68,20.29-5.7,11.4-5.62,16.29c0,0,.14,3.78.42,9.77h34.59V59Z"/><path class="cls-1" d="M40.62,0C40,9.48,42.28,13.29,42.28,13.29,54,25,50.27,59.6,48,81.07,45.62,104,35.69,104,35.69,104c-1.66,0-1.86-5.42-1.86-5.42L32.41,0H3.22V118H79V0Z"/><path class="cls-1" d="M194.5,102.57V47.89A5.14,5.14,0,0,1,203.9,45l21,31.79,21-31.79a5.14,5.14,0,0,1,9.4,2.91v54.68a5.13,5.13,0,0,1-10.25,0V64.89l-15.89,24a5.12,5.12,0,0,1-8.55,0l-15.89-24v37.68a5.13,5.13,0,0,1-10.25,0Z"/><path class="cls-1" d="M303.16,83.69v.59a4.28,4.28,0,0,1-4.27,4.28H272.84a13.22,13.22,0,0,0,.42,1.79l.77,2a8.65,8.65,0,0,0,.51.93l.52.94A10.43,10.43,0,0,0,278,97.1a9.2,9.2,0,0,0,1.8.94,8.53,8.53,0,0,0,.94.43l1,.25c.34.09.68.09,1,.17s.77.09,1.11.09a17.59,17.59,0,0,0,2.22-.09,14.75,14.75,0,0,0,2.13-.51,7.3,7.3,0,0,0,.94-.43,2.89,2.89,0,0,0,.94-.42,12.75,12.75,0,0,0,3.25-2.82,4.14,4.14,0,0,1,5.9-.77,4.28,4.28,0,0,1,.76,5.89c-.08,0-.08.09-.08.09a21.79,21.79,0,0,1-5.55,4.87,22.67,22.67,0,0,1-6.92,2.48,17.53,17.53,0,0,1-3.59.34h-1.8l-1.88-.26a18.6,18.6,0,0,1-3.58-.85,14.75,14.75,0,0,1-1.8-.69,14,14,0,0,1-1.62-.85,21.3,21.3,0,0,1-5.81-4.87,21,21,0,0,1-3.68-6.41,25.64,25.64,0,0,1-1.45-7.09,11.61,11.61,0,0,1-.08-1.71,13.41,13.41,0,0,1,.08-1.79,13.7,13.7,0,0,1,.17-1.8,13.93,13.93,0,0,1,.35-1.7,21.85,21.85,0,0,1,2.47-6.84,33.49,33.49,0,0,1,2.14-3.07A19.52,19.52,0,0,1,270,67a20.27,20.27,0,0,1,6.66-3.68,18.69,18.69,0,0,1,3.59-.85,19.33,19.33,0,0,1,7.26.17,18.58,18.58,0,0,1,3.68,1,26.75,26.75,0,0,1,3.33,1.8,14.05,14.05,0,0,1,3,2.48,19.85,19.85,0,0,1,4.18,6.4c.43,1.2.77,2.4,1.11,3.59a28.55,28.55,0,0,1,.52,3.76V82A3.74,3.74,0,0,1,303.16,83.69ZM274,77.28A24.31,24.31,0,0,0,273,80h20.16a22.64,22.64,0,0,0-.34-2.47A10.81,10.81,0,0,0,291,74a10.35,10.35,0,0,0-1.37-1.36,9.71,9.71,0,0,0-1.71-.94,17,17,0,0,0-2-.69,19.28,19.28,0,0,0-2.14-.17,11.06,11.06,0,0,0-4.18.68c-.35.18-.69.26-.94.43l-.94.51c-.26.26-.52.43-.77.69a5.29,5.29,0,0,0-.77.68A10.6,10.6,0,0,0,275,75.4,7.8,7.8,0,0,0,274,77.28Z"/><path class="cls-1" d="M349,102.4a5.13,5.13,0,0,1-10.25.17v-1.11a24.27,24.27,0,0,1-6.07,4.27c-8.8,4.18-22.55,1.28-22.55-11.28,0-13.92,14.43-14.52,16.4-14.52h12.56a8.44,8.44,0,0,0-.94-3.76,6.9,6.9,0,0,0-1.28-1.8A9.75,9.75,0,0,0,335,73a12.42,12.42,0,0,0-5.13-1.46,15.69,15.69,0,0,0-5.64.52,14.21,14.21,0,0,0-5.21,2.3,4.15,4.15,0,0,1-5.89-1.11,4.22,4.22,0,0,1,.94-5.89A24.68,24.68,0,0,1,322,63.61a23.82,23.82,0,0,1,8.54-1,20.09,20.09,0,0,1,4.44.69,18,18,0,0,1,4.36,1.62,16.78,16.78,0,0,1,3.93,2.74,17.48,17.48,0,0,1,3.16,3.92,22.58,22.58,0,0,1,1.79,4.53,24,24,0,0,1,.43,2.4c0,.34.09.76.09,1.19v1.11l.17,7.18ZM338.79,88.56h-11.2c-1,0-7.17.17-7.17,5.38,0,4.61,6.92,6,11.28,4.18,3.93-1.7,7.09-5,7.09-5.8Z"/><path class="cls-1" d="M355.87,102.4V47.72a5.13,5.13,0,1,1,10.25,0V102.4a5.13,5.13,0,0,1-10.25,0Z"/><path class="cls-2" d="M400.29,102.31V47.63a5.22,5.22,0,0,1,3.59-5,5.09,5.09,0,0,1,5.72,1.88l30.16,41.86V47.63a5.13,5.13,0,0,1,10.25,0v54.68a5.16,5.16,0,0,1-3.5,4.87,5.38,5.38,0,0,1-1.62.26,4.94,4.94,0,0,1-4.1-2.14L410.54,63.44v38.87a5.13,5.13,0,1,1-10.25,0Z"/><path class="cls-2" d="M478.63,107.78a21.11,21.11,0,0,1-15.89-6.92,24.47,24.47,0,0,1,0-31.87,21.8,21.8,0,0,1,31.86,0,23.54,23.54,0,0,1,5.81,16,23.47,23.47,0,0,1-5.81,15.89A21.16,21.16,0,0,1,478.63,107.78Zm0-10.25A11,11,0,0,0,487,94a14.67,14.67,0,0,0,0-18.19,11,11,0,0,0-8.37-3.51,10.77,10.77,0,0,0-8.29,3.51,14.35,14.35,0,0,0,0,18.19A10.77,10.77,0,0,0,478.63,97.53Z"/><path class="cls-2" d="M503.23,69a5.12,5.12,0,0,1,3.16-6.58,5.17,5.17,0,0,1,6.49,3.25L520.23,87l7.35-21.36v-.09c0-.08.08-.08.08-.17v-.08l.09-.09c0-.08,0-.08.08-.17V65l.09-.09v-.08c.09-.09.09-.09.09-.18h.08c0-.08.09-.17.09-.25l.17-.17a.28.28,0,0,1,.08-.17c.09,0,.09,0,.09-.09l.08-.08.09-.09.09-.09.08-.08.09-.09.17-.17c.08-.08.17-.08.17-.17h.08a.32.32,0,0,1,.17-.08l.17-.17a.31.31,0,0,0,.18-.09c.08,0,.08,0,.08-.09h.17c0-.08,0-.08.09-.08a.08.08,0,0,0,.08-.09h.17a.08.08,0,0,1,.09-.08h.08a.09.09,0,0,0,.09-.09h.17a.08.08,0,0,0,.09-.08h.25a.27.27,0,0,0,.17-.09h.35c.08,0,.08-.08.17-.08h.94c.08,0,.08.08.17.08h.34c.08,0,.08.09.17.09h.26a.08.08,0,0,0,.08.08h.17l.09.09h.08c.09,0,.09.08.17.08h.09c.08.09.08.09.17.09v.08h.17a.09.09,0,0,0,.09.09c.08,0,.08.09.17.09s.17.08.17.17h.08a.32.32,0,0,0,.17.08l.18.17c.08.09.17.09.17.17a.08.08,0,0,1,.08.09s.09,0,.09.08l.08.09a.09.09,0,0,1,.09.09l.08.08.09.09a.28.28,0,0,1,.08.17h.09c0,.08.08.08.08.17s.09.17.18.25.08.09.08.18v.08A.09.09,0,0,1,537,65a.08.08,0,0,0,.08.08v.17a.09.09,0,0,1,.09.09c0,.08,0,.08.08.08v.26L544.58,87l7.35-21.36a5.17,5.17,0,0,1,6.49-3.25A5.24,5.24,0,0,1,561.67,69l-12.22,35.46a5.12,5.12,0,0,1-9.65,0l-7.35-21.36-7.35,21.36a5.18,5.18,0,0,1-9.74,0Z"/></g></g></svg>